<?xml version="1.0" standalone="no"?>
<!DOCTYPE svg PUBLIC "-//W3C//DTD SVG 20010904//EN"
 "http://www.w3.org/TR/2001/REC-SVG-20010904/DTD/svg10.dtd">
<svg version="1.0" xmlns="http://www.w3.org/2000/svg"
 width="300.000000pt" height="300.000000pt" viewBox="0 0 300.000000 300.000000"
 preserveAspectRatio="xMidYMid meet">
<metadata>
Created by potrace 1.10, written by Peter Selinger 2001-2011
</metadata>
<g transform="translate(0.000000,300.000000) scale(0.050000,-0.050000)"
fill="#ff9900" stroke="none">
<path d="M240 3000 l0 -2760 1585 4 c872 2 1511 7 1420 11 -112 4 -165 14
-165 31 -1 15 -8 13 -22 -6 -16 -23 -24 -24 -31 -5 -13 30 -67 33 -67 4 0 -12
-9 -16 -19 -10 -11 7 -139 13 -285 14 -178 0 -271 8 -281 24 -9 15 -14 11 -15
-11 0 -23 -10 -31 -32 -23 -25 10 -26 16 -5 29 16 11 -27 18 -108 18 -106 0
-135 -6 -135 -29 0 -19 -12 -25 -32 -18 -25 10 -26 16 -5 29 16 11 -27 18
-109 18 -94 0 -132 -7 -123 -22 10 -16 3 -16 -24 -2 -21 11 -229 20 -477 21
-242 1 -474 4 -515 8 -56 4 -75 -2 -75 -25 -1 -23 -4 -24 -17 -4 -10 16 -76
28 -181 33 -91 4 -172 14 -179 21 -7 7 -16 451 -19 986 -3 535 -13 977 -22
983 -9 6 -23 30 -30 54 -19 62 10 65 783 80 377 7 685 21 685 29 0 30 -159 59
-341 63 -100 2 -186 11 -192 20 -5 8 -20 9 -33 1 -37 -23 -767 -40 -789 -18
-9 9 -17 123 -32 442 -3 66 0 177 7 246 7 70 5 131 -4 136 -9 6 -16 24 -16 40
0 17 8 25 19 19 11 -7 11 13 0 54 -13 42 -12 67 1 72 11 3 13 17 5 30 -21 32
-25 1996 -4 2035 14 27 58 32 253 34 130 1 274 6 321 11 47 5 85 2 85 -8 0 -9
25 -10 55 -2 71 18 619 14 685 -5 30 -9 40 -8 25 3 -15 10 30 17 115 16 77 0
140 -8 140 -17 0 -9 11 -10 24 -2 13 9 288 18 610 21 322 2 594 10 605 16 10
6 24 3 31 -9 7 -11 21 -20 32 -20 11 0 15 8 10 18 -6 9 11 17 38 17 27 0 45
-7 39 -16 -5 -9 15 -12 46 -6 30 6 276 13 545 16 270 3 506 12 525 20 21 9 35
7 35 -6 0 -14 26 -18 65 -13 169 25 375 30 375 9 0 -12 11 -15 25 -6 40 25 92
28 105 7 7 -12 30 -8 58 10 25 17 51 24 59 17 7 -8 97 -13 198 -12 196 3 252
-17 254 -86 1 -22 3 -57 4 -79 1 -22 1 -85 -1 -140 -3 -55 -1 -118 4 -140 4
-22 -5 -59 -20 -83 -18 -27 -21 -48 -8 -56 20 -12 15 -74 -10 -114 -9 -14 -5
-18 9 -9 26 16 23 -221 -4 -263 -8 -14 -6 -25 5 -25 12 0 20 -54 20 -130 -1
-71 -8 -130 -16 -130 -22 0 -24 -142 -3 -216 10 -36 10 -68 1 -74 -20 -12 -23
-469 -4 -500 20 -32 22 -70 4 -70 -10 0 -16 -121 -14 -268 2 -148 -1 -265 -6
-262 -6 4 -9 -190 -8 -430 4 -467 -6 -641 -34 -597 -12 19 -17 19 -18 3 0 -13
9 -29 20 -36 11 -7 20 -21 20 -32 0 -11 -11 -14 -25 -5 -17 10 -16 3 3 -20 15
-19 22 -40 15 -47 -7 -7 -14 0 -15 16 -2 15 -8 3 -15 -27 -13 -54 -14 -54 -71
-24 -32 16 -80 32 -105 34 -26 2 -47 11 -47 20 0 9 -11 15 -25 12 -35 -6 -234
57 -268 85 -15 13 -48 27 -72 30 -25 4 -81 13 -125 19 -44 7 -115 30 -157 51
-42 22 -93 34 -113 28 -20 -6 -42 -2 -49 9 -8 12 -40 21 -73 21 -33 0 -84 12
-114 27 -89 46 -151 61 -134 33 11 -18 5 -19 -26 -2 -23 12 -69 22 -103 22
-34 0 -86 16 -116 35 -34 22 -47 25 -37 8 14 -22 9 -23 -26 -4 -24 13 -51 18
-61 12 -10 -7 -23 -3 -30 7 -6 10 -29 14 -51 8 -22 -6 -52 -1 -67 11 -15 13
-32 17 -39 10 -7 -6 -28 -5 -48 4 -49 21 -82 27 -182 32 -48 3 -90 10 -94 18
-15 24 -230 -16 -230 -43 0 -10 4 -18 9 -18 411 0 2393 -501 2540 -642 10 -10
26 -18 35 -18 9 0 16 918 16 2040 l0 2040 -2760 0 -2760 0 0 -2760z"/>
<path d="M2440 5359 c-71 -22 -237 -78 -368 -125 l-238 -84 13 -964 c22 -1645
67 -2757 112 -2785 37 -24 761 -92 1061 -101 6 0 10 245 10 545 0 863 53 951
640 1052 217 38 595 83 692 83 36 0 36 4 -5 105 -24 58 -75 191 -114 295 -39
105 -73 193 -75 197 -3 3 -62 14 -131 24 -321 44 -797 155 -883 206 -191 111
-210 361 -41 514 170 154 285 179 819 179 475 0 548 8 548 60 0 31 -103 488
-132 583 -40 137 -1595 313 -1908 216z m81 -117 c-17 -31 -14 -37 13 -33 19 2
38 16 42 30 7 20 12 21 24 0 10 -16 29 -19 53 -9 20 9 46 14 57 11 11 -3 88
-7 171 -10 83 -3 170 -12 195 -20 28 -8 44 -5 44 9 0 12 10 16 23 8 26 -16 39
-18 276 -37 92 -7 177 -19 188 -25 10 -7 38 -15 61 -17 23 -3 69 -10 102 -16
33 -5 126 -20 206 -33 123 -20 150 -32 168 -71 12 -26 30 -43 39 -37 9 6 17 0
17 -12 0 -12 8 -18 17 -12 19 12 46 -171 35 -238 -4 -28 -26 -44 -74 -52 -79
-15 -75 -17 68 -47 147 -31 56 -33 -149 -4 -333 48 -533 57 -749 35 -215 -22
-349 -67 -266 -88 49 -13 23 -75 -67 -162 -224 -215 -122 -655 165 -713 61
-12 126 -31 145 -41 19 -10 109 -19 200 -20 235 -4 104 -33 -161 -36 -240 -2
-325 -31 -383 -126 -135 -220 43 -394 415 -404 343 -11 351 -12 214 -43 -66
-15 -138 -33 -160 -38 -22 -6 -111 -27 -198 -47 -127 -29 -161 -45 -175 -80
-9 -25 -30 -50 -48 -57 -17 -7 -26 -25 -20 -41 6 -15 2 -23 -8 -17 -19 12 -53
-64 -44 -97 3 -10 -5 -24 -17 -32 -12 -7 -25 -40 -30 -72 -4 -32 -9 -62 -12
-68 -10 -24 -16 -123 -18 -310 -2 -190 19 -331 89 -599 44 -170 38 -195 -22
-87 -29 52 -61 90 -70 84 -9 -5 -12 3 -5 19 6 16 -8 66 -31 111 -98 191 -310
742 -395 1022 -372 1235 -24 1931 1002 1997 l242 16 -183 8 c-101 5 -179 2
-174 -6 5 -8 -25 -14 -67 -13 -75 3 -75 3 -16 18 41 11 23 13 -60 8 -66 -3
-120 -7 -120 -9 0 -4 -80 -20 -120 -23 -22 -2 -49 -9 -60 -17 -11 -8 -49 -21
-85 -28 -36 -8 -65 -22 -65 -33 0 -10 -13 -18 -30 -18 -16 0 -30 -9 -30 -21 0
-11 -11 -18 -25 -15 -14 3 -44 -12 -67 -34 -23 -22 -71 -64 -106 -94 -35 -30
-66 -61 -68 -70 -2 -8 -27 -38 -56 -66 -29 -27 -48 -61 -43 -75 4 -14 -6 -25
-25 -25 -18 0 -27 8 -21 19 6 10 2 24 -10 32 -12 7 -16 37 -10 66 6 29 15 85
20 123 5 39 15 93 21 120 7 28 15 72 19 99 3 27 17 53 29 57 12 4 17 15 11 25
-6 10 3 45 21 78 17 35 22 61 11 61 -12 0 -21 10 -21 21 0 12 8 17 17 11 9 -6
28 12 40 40 14 30 15 45 3 38 -26 -16 -25 3 2 54 12 22 13 35 3 29 -11 -7 -32
-42 -46 -78 -15 -36 -34 -70 -42 -76 -22 -15 -148 -386 -180 -529 -35 -159
-36 -809 0 -1010 73 -416 240 -885 502 -1412 95 -191 168 -348 162 -347 -15 1
-160 253 -256 444 -43 85 -85 149 -93 141 -8 -8 -8 0 -2 18 7 18 -1 54 -18 80
-17 27 -49 98 -70 159 -20 61 -48 128 -61 149 -13 21 -39 92 -59 158 -36 118
-37 119 -34 37 1 -46 7 -80 14 -76 20 13 61 -150 49 -197 -6 -24 -5 -33 1 -19
19 42 45 28 34 -20 -8 -36 -5 -39 12 -15 18 26 21 25 22 -5 0 -19 -9 -35 -19
-35 -25 0 28 -126 57 -136 12 -4 22 -16 22 -27 0 -11 -11 -14 -25 -7 -14 7 -9
0 10 -16 19 -16 35 -41 35 -57 0 -27 66 -178 132 -300 15 -29 28 -68 28 -85 0
-18 9 -32 20 -32 11 0 25 -36 32 -80 7 -43 21 -74 30 -68 10 5 18 -4 18 -21 0
-17 8 -31 17 -31 9 0 16 -13 16 -30 0 -16 -8 -30 -18 -30 -9 0 -11 -11 -3 -23
10 -16 4 -20 -19 -11 -19 7 -34 3 -35 -12 -1 -18 -4 -18 -11 1 -6 14 -24 25
-40 25 -16 0 -24 -9 -17 -20 7 -11 4 -20 -7 -20 -11 0 -23 8 -26 18 -6 14
-160 34 -322 41 -8 1 -16 17 -17 36 -3 33 -3 33 -12 0 -5 -19 -13 -35 -17 -35
-20 0 -85 77 -74 88 6 6 0 24 -13 40 -14 16 -23 84 -22 155 1 130 -14 327 -30
372 -5 14 1 25 13 25 14 0 13 10 -3 30 -16 20 -17 30 -3 30 12 0 18 11 13 25
-17 49 -32 269 -37 565 -3 166 -11 311 -19 324 -8 13 -7 28 2 34 9 5 15 55 12
111 -2 56 4 106 14 112 10 6 18 25 18 41 0 17 -9 25 -19 19 -12 -8 -19 135
-20 370 -1 210 -10 398 -20 418 -11 19 -15 124 -10 233 8 189 10 361 4 386 -2
7 12 40 30 75 36 67 76 92 179 112 19 4 40 13 47 19 7 7 29 -2 50 -20 28 -23
32 -36 14 -47 -13 -8 -16 -22 -7 -31 10 -9 21 -5 26 9 16 43 172 245 190 245
10 0 8 -17 -3 -38z m904 -1772 c9 -12 15 -9 15 7 0 23 6 23 30 3 17 -14 30
-16 30 -6 0 11 14 19 30 19 17 0 30 -8 30 -19 0 -10 12 -9 27 3 15 13 33 17
40 9 8 -7 70 -17 138 -21 187 -11 195 -12 195 -31 0 -10 12 -14 27 -8 37 14
56 -3 108 -99 103 -189 51 -218 -385 -208 -45 1 -182 6 -235 8 -19 1 -35 7
-35 14 0 6 -29 12 -65 11 -73 0 -215 47 -215 72 0 9 -13 16 -28 16 -67 0 -52
180 18 207 18 7 27 4 20 -7 -7 -11 1 -14 19 -8 17 7 31 21 31 32 0 11 31 17
70 12 39 -4 70 -1 70 8 0 21 46 11 65 -14z"/>
<path d="M2067 4070 c0 -77 3 -106 8 -65 4 42 4 105 -1 140 -4 36 -8 2 -7 -75z"/>
<path d="M2067 3750 c0 -88 3 -122 8 -74 4 47 4 119 0 160 -5 40 -8 2 -8 -86z"/>
<path d="M2114 3300 c7 -60 14 -138 15 -173 0 -35 8 -59 16 -54 8 5 15 -4 15
-20 0 -15 14 -54 31 -86 l32 -57 -14 69 c-8 38 -22 83 -31 100 -10 17 -31 99
-48 181 -22 111 -26 121 -16 40z"/>
<path d="M1182 1976 c29 -25 82 -68 118 -96 35 -27 74 -59 87 -70 27 -24 216
-163 308 -227 36 -25 65 -36 65 -24 0 12 -22 32 -48 44 -26 12 -58 43 -70 70
-12 27 -31 44 -41 38 -10 -7 -27 4 -38 23 -11 20 -36 36 -57 36 -20 0 -34 12
-31 26 4 15 -3 22 -13 15 -11 -6 -27 0 -36 14 -9 14 -29 25 -46 25 -16 0 -27
14 -23 30 3 17 0 24 -7 16 -8 -7 -25 -5 -37 5 -61 51 -184 121 -131 75z"/>
<path d="M3318 1170 c-58 -32 -118 -112 -118 -159 0 -55 118 -40 140 18 22 60
104 85 171 54 112 -51 35 -233 -92 -218 -38 4 -47 -5 -47 -44 -1 -43 8 -50 73
-52 95 -3 135 -38 135 -120 0 -130 -144 -171 -240 -69 -55 59 -160 84 -160 38
0 -147 244 -245 413 -165 146 69 169 276 38 346 l-45 24 57 57 c169 169 -103
411 -325 290z"/>
<path d="M3970 1182 c-200 -88 -219 -634 -26 -734 165 -85 370 18 390 196 24
210 -159 340 -332 235 l-68 -42 11 96 c18 156 149 222 231 117 48 -61 144 -70
144 -14 0 105 -228 200 -350 146z m199 -393 c32 -33 35 -43 35 -109 0 -85 -6
-100 -53 -131 -100 -65 -211 8 -211 139 0 99 160 169 229 101z"/>
<path d="M4586 1171 c-101 -44 -126 -117 -126 -365 1 -295 63 -386 260 -386
185 1 242 88 243 371 2 359 -127 488 -377 380z m186 -86 c80 -54 101 -452 28
-525 -145 -145 -285 138 -212 429 23 92 117 140 184 96z"/>
<path d="M3655 245 c47 -4 123 -4 170 0 47 5 9 8 -85 8 -93 0 -132 -3 -85 -8z"/>
</g>
</svg>
